<?xml version="1.0" encoding="UTF-8" standalone="no"?>
<svg
   viewBox="0 0 255.76 255.76"
   version="1.1"
   id="svg7"
   xmlns="http://www.w3.org/2000/svg"
   xmlns:svg="http://www.w3.org/2000/svg">
  <defs
     id="defs1">
    <style
       id="style1">.cls-1{fill:#02c5e5;}.cls-2{fill:#ff5f55;}.cls-3{fill:none;}</style>
  </defs>
  <g
     id="Ebene_2"
     data-name="Ebene 2"
     transform="rotate(180,127.88,127.88)">
    <g
       id="Ebene_1-2"
       data-name="Ebene 1">
      <g
         id="Ebene_2-2"
         data-name="Ebene 2">
        <g
           id="Ebene_1-2-2"
           data-name="Ebene 1-2">
          <path
             class="cls-1"
             d="M 80.63,0 V 220.39 H 44.37 c -14,0 -35.74,-20.74 -35.74,-39.13 V 40.13 C 8.63,19.19 31.36,0 49.06,0 Z"
             id="path1" />
          <path
             class="cls-2"
             d="m 175.13,35.37 v 220.39 h 36.26 c 14,0 35.74,-20.74 35.74,-39.13 V 75.5 c 0,-20.94 -22.73,-40.13 -40.43,-40.13 z"
             id="path2" />
          <polygon
             class="cls-1"
             points="90.64,145.57 92.89,137.96 124.34,137.96 122.58,145.57 "
             id="polygon2" />
          <polygon
             class="cls-2"
             points="122.58,145.57 124.34,137.96 160.29,137.96 157.84,145.57 "
             id="polygon3" />
          <polygon
             class="cls-1"
             points="95.14,119.47 97.39,111.86 130.39,111.86 128.62,119.47 "
             id="polygon4" />
          <polygon
             class="cls-2"
             points="128.62,119.47 130.39,111.86 164.79,111.86 162.34,119.47 "
             id="polygon5" />
          <polygon
             class="cls-1"
             points="129.78,87.77 111.19,167.99 104.24,167.99 122.83,87.77 "
             id="polygon6" />
          <polygon
             class="cls-2"
             points="153.89,87.77 135.3,167.99 128.18,167.99 146.77,87.77 "
             id="polygon7" />
        </g>
        <rect
           class="cls-3"
           width="255.75999"
           height="255.75999"
           id="rect7"
           x="0"
           y="0" />
      </g>
    </g>
  </g>
</svg>
